# xmcd
#
# Track frame offsets:
#	150
#	20113
#	39563
#	68133
#	93208
#	107955
#	137270
#	157688
#	183335
#	201678
#	218178
#	247228
#	269915
#
# Disc length: 3690 seconds
#
# Revision: 0
# Processed by: cddbd v1.4PL0 Copyright (c) Steve Scherf et al.
# Submitted via: EasyCDDAExtractor 4.6.0.1
#
DISCID=c40e680d
DTITLE=Ilhan Irem - Ilhani Ask
DYEAR=1991
DGENRE=
TTITLE0=Ara Ara Beni Ara
TTITLE1=Ruh Gigi
TTITLE2=Hayatin Ucuncu Gozu
TTITLE3=Ýlhani Ask
TTITLE4=Oyle Durma
TTITLE5=Surgun Gibi Masallarda
TTITLE6=Gunes Tutulmasi
TTITLE7=Don
TTITLE8=Yagma Yagmur
TTITLE9=Daima
TTITLE10=Belki
TTITLE11=Bitti
TTITLE12=Cennetin Kipirtilari
EXTD=
EXTT0=
EXTT1=
EXTT2=
EXTT3=
EXTT4=
EXTT5=
EXTT6=
EXTT7=
EXTT8=
EXTT9=
EXTT10=
EXTT11=
EXTT12=
PLAYORDER=
